# xmcd
#
# Track frame offsets:
#	150
#	18006
#	36409
#	54025
#	70055
#	95361
#	113840
#	129869
#	148776
#	171927
#
# Disc length: 2481 seconds
#
# Revision: 0
# Processed by: cddbd v1.5.1PL2 Copyright (c) Steve Scherf et al.
# Submitted via: EasyCDDAExtractor 9.0.0.1
#
DISCID=7b09af0a
DTITLE=Jim Anthony Band
DYEAR=2003
DGENRE=Christian
TTITLE0=All I Need
TTITLE1=The Race
TTITLE2=Little Bit Of Faith
TTITLE3=Press On
TTITLE4=He Is My Peace
TTITLE5=Who You Gonna Run To
TTITLE6=Walking With You
TTITLE7=The You Inside Me
TTITLE8=Dear God
TTITLE9=Fourth Of July
EXTD=
EXTT0=
EXTT1=
EXTT2=
EXTT3=
EXTT4=
EXTT5=
EXTT6=
EXTT7=
EXTT8=
EXTT9=
PLAYORDER=
